<mxfile host="Electron" agent="Mozilla/5.0 (Macintosh; Intel Mac OS X 10_15_7) AppleWebKit/537.36 (KHTML, like Gecko) draw.io/24.7.5 Chrome/126.0.6478.183 Electron/31.3.0 Safari/537.36" version="24.7.5">
  <diagram name="Page-1" id="mLicyR75k-aPQVn_HjAy">
    <mxGraphModel dx="1793" dy="1099" grid="1" gridSize="10" guides="1" tooltips="1" connect="1" arrows="1" fold="1" page="1" pageScale="1" pageWidth="850" pageHeight="1100" math="0" shadow="0">
      <root>
        <mxCell id="0" />
        <mxCell id="1" parent="0" />
        <mxCell id="jcZ8EyVR28jy-M62FRA5-1" value="1" style="rounded=0;whiteSpace=wrap;html=1;fontFamily=Verdana;" vertex="1" parent="1">
          <mxGeometry x="570" y="360" width="40" height="40" as="geometry" />
        </mxCell>
        <mxCell id="jcZ8EyVR28jy-M62FRA5-2" value="2" style="rounded=0;whiteSpace=wrap;html=1;fontFamily=Verdana;" vertex="1" parent="1">
          <mxGeometry x="570" y="400" width="40" height="40" as="geometry" />
        </mxCell>
        <mxCell id="jcZ8EyVR28jy-M62FRA5-19" style="edgeStyle=orthogonalEdgeStyle;rounded=0;orthogonalLoop=1;jettySize=auto;html=1;exitX=1;exitY=0.5;exitDx=0;exitDy=0;entryX=0;entryY=0.5;entryDx=0;entryDy=0;" edge="1" parent="1" source="jcZ8EyVR28jy-M62FRA5-3" target="jcZ8EyVR28jy-M62FRA5-17">
          <mxGeometry relative="1" as="geometry" />
        </mxCell>
        <mxCell id="jcZ8EyVR28jy-M62FRA5-3" value="3" style="rounded=0;whiteSpace=wrap;html=1;fontFamily=Verdana;" vertex="1" parent="1">
          <mxGeometry x="570" y="440" width="40" height="40" as="geometry" />
        </mxCell>
        <mxCell id="jcZ8EyVR28jy-M62FRA5-4" value="4" style="rounded=0;whiteSpace=wrap;html=1;fontFamily=Verdana;" vertex="1" parent="1">
          <mxGeometry x="570" y="480" width="40" height="40" as="geometry" />
        </mxCell>
        <mxCell id="jcZ8EyVR28jy-M62FRA5-5" value="5" style="rounded=0;whiteSpace=wrap;html=1;fontFamily=Verdana;" vertex="1" parent="1">
          <mxGeometry x="570" y="520" width="40" height="40" as="geometry" />
        </mxCell>
        <mxCell id="jcZ8EyVR28jy-M62FRA5-6" value="6" style="rounded=0;whiteSpace=wrap;html=1;fontFamily=Verdana;" vertex="1" parent="1">
          <mxGeometry x="570" y="560" width="40" height="40" as="geometry" />
        </mxCell>
        <mxCell id="jcZ8EyVR28jy-M62FRA5-26" style="edgeStyle=orthogonalEdgeStyle;rounded=0;orthogonalLoop=1;jettySize=auto;html=1;exitX=1;exitY=0.5;exitDx=0;exitDy=0;entryX=0;entryY=0.5;entryDx=0;entryDy=0;" edge="1" parent="1" source="jcZ8EyVR28jy-M62FRA5-7" target="jcZ8EyVR28jy-M62FRA5-20">
          <mxGeometry relative="1" as="geometry" />
        </mxCell>
        <mxCell id="jcZ8EyVR28jy-M62FRA5-7" value="7" style="rounded=0;whiteSpace=wrap;html=1;fontFamily=Verdana;" vertex="1" parent="1">
          <mxGeometry x="570" y="600" width="40" height="40" as="geometry" />
        </mxCell>
        <mxCell id="jcZ8EyVR28jy-M62FRA5-8" value="8" style="rounded=0;whiteSpace=wrap;html=1;fontFamily=Verdana;" vertex="1" parent="1">
          <mxGeometry x="570" y="640" width="40" height="40" as="geometry" />
        </mxCell>
        <mxCell id="jcZ8EyVR28jy-M62FRA5-9" value="9" style="rounded=0;whiteSpace=wrap;html=1;fontFamily=Verdana;" vertex="1" parent="1">
          <mxGeometry x="570" y="680" width="40" height="40" as="geometry" />
        </mxCell>
        <mxCell id="jcZ8EyVR28jy-M62FRA5-14" style="edgeStyle=orthogonalEdgeStyle;rounded=0;orthogonalLoop=1;jettySize=auto;html=1;exitX=1;exitY=0.5;exitDx=0;exitDy=0;entryX=0;entryY=0.5;entryDx=0;entryDy=0;" edge="1" parent="1" source="jcZ8EyVR28jy-M62FRA5-10" target="jcZ8EyVR28jy-M62FRA5-12">
          <mxGeometry relative="1" as="geometry" />
        </mxCell>
        <mxCell id="jcZ8EyVR28jy-M62FRA5-10" value="0" style="rounded=0;whiteSpace=wrap;html=1;fontFamily=Verdana;" vertex="1" parent="1">
          <mxGeometry x="570" y="320" width="40" height="40" as="geometry" />
        </mxCell>
        <mxCell id="jcZ8EyVR28jy-M62FRA5-15" style="edgeStyle=orthogonalEdgeStyle;rounded=0;orthogonalLoop=1;jettySize=auto;html=1;exitX=1;exitY=0.5;exitDx=0;exitDy=0;entryX=0;entryY=0.5;entryDx=0;entryDy=0;" edge="1" parent="1" source="jcZ8EyVR28jy-M62FRA5-12" target="jcZ8EyVR28jy-M62FRA5-13">
          <mxGeometry relative="1" as="geometry" />
        </mxCell>
        <mxCell id="jcZ8EyVR28jy-M62FRA5-12" value="Entry(hash, K, V, next)" style="rounded=0;whiteSpace=wrap;html=1;fontFamily=Verdana;fontSize=10;" vertex="1" parent="1">
          <mxGeometry x="650" y="325" width="120" height="30" as="geometry" />
        </mxCell>
        <mxCell id="jcZ8EyVR28jy-M62FRA5-13" value="Entry(hash, K, V, next)" style="rounded=0;whiteSpace=wrap;html=1;fontFamily=Verdana;fontSize=10;" vertex="1" parent="1">
          <mxGeometry x="810" y="325" width="120" height="30" as="geometry" />
        </mxCell>
        <mxCell id="jcZ8EyVR28jy-M62FRA5-17" value="Entry(hash, K, V, next)" style="rounded=0;whiteSpace=wrap;html=1;fontFamily=Verdana;fontSize=10;" vertex="1" parent="1">
          <mxGeometry x="650" y="445" width="120" height="30" as="geometry" />
        </mxCell>
        <mxCell id="jcZ8EyVR28jy-M62FRA5-27" style="edgeStyle=orthogonalEdgeStyle;rounded=0;orthogonalLoop=1;jettySize=auto;html=1;exitX=1;exitY=0.5;exitDx=0;exitDy=0;entryX=0;entryY=0.5;entryDx=0;entryDy=0;" edge="1" parent="1" source="jcZ8EyVR28jy-M62FRA5-20" target="jcZ8EyVR28jy-M62FRA5-21">
          <mxGeometry relative="1" as="geometry" />
        </mxCell>
        <mxCell id="jcZ8EyVR28jy-M62FRA5-20" value="Entry(hash, K, V, next)" style="rounded=0;whiteSpace=wrap;html=1;fontFamily=Verdana;fontSize=10;" vertex="1" parent="1">
          <mxGeometry x="650" y="605" width="120" height="30" as="geometry" />
        </mxCell>
        <mxCell id="jcZ8EyVR28jy-M62FRA5-28" style="edgeStyle=orthogonalEdgeStyle;rounded=0;orthogonalLoop=1;jettySize=auto;html=1;exitX=1;exitY=0.5;exitDx=0;exitDy=0;entryX=0;entryY=0.5;entryDx=0;entryDy=0;" edge="1" parent="1" source="jcZ8EyVR28jy-M62FRA5-21" target="jcZ8EyVR28jy-M62FRA5-22">
          <mxGeometry relative="1" as="geometry" />
        </mxCell>
        <mxCell id="jcZ8EyVR28jy-M62FRA5-21" value="Entry(hash, K, V, next)" style="rounded=0;whiteSpace=wrap;html=1;fontFamily=Verdana;fontSize=10;" vertex="1" parent="1">
          <mxGeometry x="810" y="605" width="120" height="30" as="geometry" />
        </mxCell>
        <mxCell id="jcZ8EyVR28jy-M62FRA5-22" value="Entry(hash, K, V, next)" style="rounded=0;whiteSpace=wrap;html=1;fontFamily=Verdana;fontSize=10;" vertex="1" parent="1">
          <mxGeometry x="970" y="605" width="120" height="30" as="geometry" />
        </mxCell>
        <mxCell id="jcZ8EyVR28jy-M62FRA5-23" value="" style="shape=curlyBracket;whiteSpace=wrap;html=1;rounded=1;flipH=1;labelPosition=right;verticalLabelPosition=middle;align=left;verticalAlign=middle;rotation=-90;" vertex="1" parent="1">
          <mxGeometry x="785" y="160" width="20" height="300" as="geometry" />
        </mxCell>
        <mxCell id="jcZ8EyVR28jy-M62FRA5-24" value="Linked List" style="text;html=1;align=center;verticalAlign=middle;whiteSpace=wrap;rounded=0;fontStyle=1;fontFamily=Verdana;textShadow=1;" vertex="1" parent="1">
          <mxGeometry x="750" y="280" width="100" height="20" as="geometry" />
        </mxCell>
        <mxCell id="jcZ8EyVR28jy-M62FRA5-29" value="" style="shape=curlyBracket;whiteSpace=wrap;html=1;rounded=1;labelPosition=left;verticalLabelPosition=middle;align=right;verticalAlign=middle;" vertex="1" parent="1">
          <mxGeometry x="540" y="320" width="20" height="400" as="geometry" />
        </mxCell>
        <mxCell id="jcZ8EyVR28jy-M62FRA5-30" value="Array List" style="text;html=1;align=center;verticalAlign=middle;whiteSpace=wrap;rounded=0;fontStyle=1;fontFamily=Verdana;textShadow=1;rotation=-90;" vertex="1" parent="1">
          <mxGeometry x="480" y="510" width="100" height="20" as="geometry" />
        </mxCell>
        <mxCell id="jcZ8EyVR28jy-M62FRA5-31" value="" style="shape=curlyBracket;whiteSpace=wrap;html=1;rounded=1;flipH=1;labelPosition=right;verticalLabelPosition=middle;align=left;verticalAlign=middle;" vertex="1" parent="1">
          <mxGeometry x="620" y="680" width="20" height="40" as="geometry" />
        </mxCell>
        <mxCell id="jcZ8EyVR28jy-M62FRA5-32" value="Bucket" style="text;html=1;align=center;verticalAlign=middle;whiteSpace=wrap;rounded=0;fontStyle=1;fontFamily=Verdana;textShadow=1;rotation=-90;" vertex="1" parent="1">
          <mxGeometry x="620" y="690" width="60" height="20" as="geometry" />
        </mxCell>
        <mxCell id="jcZ8EyVR28jy-M62FRA5-41" style="edgeStyle=orthogonalEdgeStyle;rounded=0;orthogonalLoop=1;jettySize=auto;html=1;exitX=1;exitY=0.5;exitDx=0;exitDy=0;entryX=0;entryY=0.5;entryDx=0;entryDy=0;" edge="1" parent="1" source="jcZ8EyVR28jy-M62FRA5-36" target="jcZ8EyVR28jy-M62FRA5-40">
          <mxGeometry relative="1" as="geometry" />
        </mxCell>
        <mxCell id="jcZ8EyVR28jy-M62FRA5-36" value="Call put(?)" style="rounded=1;whiteSpace=wrap;html=1;fontFamily=Verdana;fillColor=#dae8fc;strokeColor=#6c8ebf;" vertex="1" parent="1">
          <mxGeometry x="160" y="40" width="120" height="40" as="geometry" />
        </mxCell>
        <mxCell id="jcZ8EyVR28jy-M62FRA5-39" style="edgeStyle=orthogonalEdgeStyle;rounded=0;orthogonalLoop=1;jettySize=auto;html=1;exitX=1;exitY=0.5;exitDx=0;exitDy=0;" edge="1" parent="1" source="jcZ8EyVR28jy-M62FRA5-38" target="jcZ8EyVR28jy-M62FRA5-36">
          <mxGeometry relative="1" as="geometry" />
        </mxCell>
        <mxCell id="jcZ8EyVR28jy-M62FRA5-38" value="Start" style="ellipse;whiteSpace=wrap;html=1;aspect=fixed;fontFamily=Verdana;fillColor=#d5e8d4;strokeColor=#82b366;" vertex="1" parent="1">
          <mxGeometry x="40" y="40" width="40" height="40" as="geometry" />
        </mxCell>
        <mxCell id="jcZ8EyVR28jy-M62FRA5-43" style="edgeStyle=orthogonalEdgeStyle;rounded=0;orthogonalLoop=1;jettySize=auto;html=1;exitX=1;exitY=0.5;exitDx=0;exitDy=0;entryX=0;entryY=0.5;entryDx=0;entryDy=0;strokeColor=#FF0000;" edge="1" parent="1" source="jcZ8EyVR28jy-M62FRA5-40" target="jcZ8EyVR28jy-M62FRA5-42">
          <mxGeometry relative="1" as="geometry" />
        </mxCell>
        <mxCell id="jcZ8EyVR28jy-M62FRA5-50" style="edgeStyle=orthogonalEdgeStyle;rounded=0;orthogonalLoop=1;jettySize=auto;html=1;exitX=0.5;exitY=1;exitDx=0;exitDy=0;entryX=0.5;entryY=0;entryDx=0;entryDy=0;strokeColor=#00CC66;" edge="1" parent="1" source="jcZ8EyVR28jy-M62FRA5-40" target="jcZ8EyVR28jy-M62FRA5-49">
          <mxGeometry relative="1" as="geometry" />
        </mxCell>
        <mxCell id="jcZ8EyVR28jy-M62FRA5-40" value="is key null?" style="rhombus;whiteSpace=wrap;html=1;fillColor=#fff2cc;strokeColor=#d6b656;" vertex="1" parent="1">
          <mxGeometry x="370" y="25" width="80" height="70" as="geometry" />
        </mxCell>
        <mxCell id="jcZ8EyVR28jy-M62FRA5-45" style="edgeStyle=orthogonalEdgeStyle;rounded=0;orthogonalLoop=1;jettySize=auto;html=1;exitX=1;exitY=0.5;exitDx=0;exitDy=0;entryX=0;entryY=0.5;entryDx=0;entryDy=0;" edge="1" parent="1" source="jcZ8EyVR28jy-M62FRA5-42" target="jcZ8EyVR28jy-M62FRA5-44">
          <mxGeometry relative="1" as="geometry" />
        </mxCell>
        <mxCell id="jcZ8EyVR28jy-M62FRA5-42" value="Calculate hashcode of key hash(k)" style="rounded=1;whiteSpace=wrap;html=1;fontFamily=Verdana;fillColor=#f5f5f5;strokeColor=#666666;fontColor=#333333;" vertex="1" parent="1">
          <mxGeometry x="600" y="40" width="120" height="40" as="geometry" />
        </mxCell>
        <mxCell id="jcZ8EyVR28jy-M62FRA5-53" style="edgeStyle=orthogonalEdgeStyle;rounded=0;orthogonalLoop=1;jettySize=auto;html=1;exitX=1;exitY=0.5;exitDx=0;exitDy=0;entryX=0;entryY=0.5;entryDx=0;entryDy=0;" edge="1" parent="1" source="jcZ8EyVR28jy-M62FRA5-44" target="jcZ8EyVR28jy-M62FRA5-52">
          <mxGeometry relative="1" as="geometry" />
        </mxCell>
        <mxCell id="jcZ8EyVR28jy-M62FRA5-44" value="Calculate index based on indexFor(h, length)" style="rounded=1;whiteSpace=wrap;html=1;fontFamily=Verdana;fillColor=#f5f5f5;fontColor=#333333;strokeColor=#666666;" vertex="1" parent="1">
          <mxGeometry x="800" y="40" width="200" height="40" as="geometry" />
        </mxCell>
        <mxCell id="jcZ8EyVR28jy-M62FRA5-46" value="&lt;span style=&quot;font-family: Verdana; text-wrap: wrap;&quot;&gt;hashcode&lt;/span&gt;" style="text;html=1;align=center;verticalAlign=middle;resizable=0;points=[];autosize=1;strokeColor=none;fillColor=none;" vertex="1" parent="1">
          <mxGeometry x="860" y="10" width="80" height="30" as="geometry" />
        </mxCell>
        <mxCell id="jcZ8EyVR28jy-M62FRA5-47" value="&lt;span style=&quot;font-family: Verdana; text-wrap: wrap;&quot;&gt;k&lt;/span&gt;" style="text;html=1;align=center;verticalAlign=middle;resizable=0;points=[];autosize=1;strokeColor=none;fillColor=none;" vertex="1" parent="1">
          <mxGeometry x="645" y="10" width="30" height="30" as="geometry" />
        </mxCell>
        <mxCell id="jcZ8EyVR28jy-M62FRA5-48" value="&lt;span style=&quot;font-family: Verdana; text-wrap: wrap;&quot;&gt;No&lt;/span&gt;" style="text;html=1;align=center;verticalAlign=middle;resizable=0;points=[];autosize=1;strokeColor=none;fillColor=none;fontStyle=1;fontColor=#FF0000;" vertex="1" parent="1">
          <mxGeometry x="480" y="30" width="40" height="30" as="geometry" />
        </mxCell>
        <mxCell id="jcZ8EyVR28jy-M62FRA5-125" style="edgeStyle=orthogonalEdgeStyle;rounded=0;orthogonalLoop=1;jettySize=auto;html=1;exitX=0.5;exitY=1;exitDx=0;exitDy=0;entryX=0.5;entryY=0;entryDx=0;entryDy=0;curved=1;fillColor=#ffe6cc;strokeColor=#d79b00;strokeWidth=2;dashed=1;" edge="1" parent="1" source="jcZ8EyVR28jy-M62FRA5-49" target="jcZ8EyVR28jy-M62FRA5-10">
          <mxGeometry relative="1" as="geometry" />
        </mxCell>
        <mxCell id="jcZ8EyVR28jy-M62FRA5-49" value="Place it at index 0" style="rounded=1;whiteSpace=wrap;html=1;fontFamily=Verdana;fillColor=#f5f5f5;fontColor=#333333;strokeColor=#666666;" vertex="1" parent="1">
          <mxGeometry x="350" y="160" width="120" height="40" as="geometry" />
        </mxCell>
        <mxCell id="jcZ8EyVR28jy-M62FRA5-51" value="&lt;font face=&quot;Verdana&quot;&gt;&lt;span style=&quot;text-wrap: wrap;&quot;&gt;Yes&lt;/span&gt;&lt;/font&gt;" style="text;html=1;align=center;verticalAlign=middle;resizable=0;points=[];autosize=1;strokeColor=none;fillColor=none;fontStyle=1;fontColor=#00CC66;" vertex="1" parent="1">
          <mxGeometry x="410" y="110" width="40" height="30" as="geometry" />
        </mxCell>
        <mxCell id="jcZ8EyVR28jy-M62FRA5-55" style="edgeStyle=orthogonalEdgeStyle;rounded=0;orthogonalLoop=1;jettySize=auto;html=1;exitX=1;exitY=0.5;exitDx=0;exitDy=0;entryX=0;entryY=0.5;entryDx=0;entryDy=0;strokeColor=#00CC66;" edge="1" parent="1" source="jcZ8EyVR28jy-M62FRA5-52" target="jcZ8EyVR28jy-M62FRA5-54">
          <mxGeometry relative="1" as="geometry" />
        </mxCell>
        <mxCell id="jcZ8EyVR28jy-M62FRA5-120" style="edgeStyle=orthogonalEdgeStyle;rounded=0;orthogonalLoop=1;jettySize=auto;html=1;exitX=0.5;exitY=1;exitDx=0;exitDy=0;entryX=0.5;entryY=0;entryDx=0;entryDy=0;strokeColor=#FF0000;" edge="1" parent="1" source="jcZ8EyVR28jy-M62FRA5-52" target="jcZ8EyVR28jy-M62FRA5-60">
          <mxGeometry relative="1" as="geometry" />
        </mxCell>
        <mxCell id="jcZ8EyVR28jy-M62FRA5-52" value="is key already existed" style="rhombus;whiteSpace=wrap;html=1;fillColor=#fff2cc;strokeColor=#d6b656;" vertex="1" parent="1">
          <mxGeometry x="1090" y="25" width="80" height="70" as="geometry" />
        </mxCell>
        <mxCell id="jcZ8EyVR28jy-M62FRA5-54" value="Replace old value to new one" style="rounded=1;whiteSpace=wrap;html=1;fontFamily=Verdana;fillColor=#f5f5f5;fontColor=#333333;strokeColor=#666666;" vertex="1" parent="1">
          <mxGeometry x="1250" y="40" width="120" height="40" as="geometry" />
        </mxCell>
        <mxCell id="jcZ8EyVR28jy-M62FRA5-56" value="&lt;font face=&quot;Verdana&quot;&gt;&lt;span style=&quot;text-wrap: wrap;&quot;&gt;Yes&lt;/span&gt;&lt;/font&gt;" style="text;html=1;align=center;verticalAlign=middle;resizable=0;points=[];autosize=1;strokeColor=none;fillColor=none;fontStyle=1;fontColor=#00CC66;" vertex="1" parent="1">
          <mxGeometry x="1190" y="30" width="40" height="30" as="geometry" />
        </mxCell>
        <mxCell id="jcZ8EyVR28jy-M62FRA5-59" value="&lt;span style=&quot;font-family: Verdana; text-wrap: wrap;&quot;&gt;No&lt;/span&gt;" style="text;html=1;align=center;verticalAlign=middle;resizable=0;points=[];autosize=1;strokeColor=none;fillColor=none;fontStyle=1;fontColor=#FF0000;" vertex="1" parent="1">
          <mxGeometry x="1140" y="87.5" width="40" height="30" as="geometry" />
        </mxCell>
        <mxCell id="jcZ8EyVR28jy-M62FRA5-62" style="edgeStyle=orthogonalEdgeStyle;rounded=0;orthogonalLoop=1;jettySize=auto;html=1;exitX=1;exitY=0.5;exitDx=0;exitDy=0;entryX=0;entryY=0.5;entryDx=0;entryDy=0;strokeColor=#00CC66;" edge="1" parent="1" source="jcZ8EyVR28jy-M62FRA5-60" target="jcZ8EyVR28jy-M62FRA5-63">
          <mxGeometry relative="1" as="geometry">
            <mxPoint x="1560" y="180" as="targetPoint" />
          </mxGeometry>
        </mxCell>
        <mxCell id="jcZ8EyVR28jy-M62FRA5-122" style="edgeStyle=orthogonalEdgeStyle;rounded=0;orthogonalLoop=1;jettySize=auto;html=1;exitX=0.5;exitY=1;exitDx=0;exitDy=0;entryX=0.5;entryY=0;entryDx=0;entryDy=0;strokeColor=#FF0000;" edge="1" parent="1" source="jcZ8EyVR28jy-M62FRA5-60" target="jcZ8EyVR28jy-M62FRA5-121">
          <mxGeometry relative="1" as="geometry" />
        </mxCell>
        <mxCell id="jcZ8EyVR28jy-M62FRA5-60" value="&lt;font style=&quot;font-size: 10px;&quot; face=&quot;Verdana&quot;&gt;length &amp;gt;=&amp;nbsp;&lt;span style=&quot;color: rgb(36, 36, 36); letter-spacing: -0.06px; text-align: left;&quot;&gt;TREEIFY_THRESHOLD&lt;/span&gt;&lt;/font&gt;" style="rhombus;whiteSpace=wrap;html=1;fillColor=#fff2cc;strokeColor=#d6b656;" vertex="1" parent="1">
          <mxGeometry x="1032.5" y="117.5" width="195" height="125" as="geometry" />
        </mxCell>
        <mxCell id="jcZ8EyVR28jy-M62FRA5-63" value="Convert Linked List to ReadBlackTree" style="rounded=1;whiteSpace=wrap;html=1;fontFamily=Verdana;fillColor=#f5f5f5;fontColor=#333333;strokeColor=#666666;" vertex="1" parent="1">
          <mxGeometry x="1570" y="160" width="120" height="40" as="geometry" />
        </mxCell>
        <mxCell id="jcZ8EyVR28jy-M62FRA5-64" value="&lt;font face=&quot;Verdana&quot;&gt;&lt;span style=&quot;text-wrap: wrap;&quot;&gt;Yes&lt;/span&gt;&lt;/font&gt;" style="text;html=1;align=center;verticalAlign=middle;resizable=0;points=[];autosize=1;strokeColor=none;fillColor=none;fontStyle=1;fontColor=#00CC66;" vertex="1" parent="1">
          <mxGeometry x="1250" y="150" width="40" height="30" as="geometry" />
        </mxCell>
        <mxCell id="jcZ8EyVR28jy-M62FRA5-65" value="1" style="rounded=0;whiteSpace=wrap;html=1;fontFamily=Verdana;" vertex="1" parent="1">
          <mxGeometry x="1450" y="360" width="40" height="40" as="geometry" />
        </mxCell>
        <mxCell id="jcZ8EyVR28jy-M62FRA5-66" value="2" style="rounded=0;whiteSpace=wrap;html=1;fontFamily=Verdana;" vertex="1" parent="1">
          <mxGeometry x="1450" y="400" width="40" height="40" as="geometry" />
        </mxCell>
        <mxCell id="jcZ8EyVR28jy-M62FRA5-67" style="edgeStyle=orthogonalEdgeStyle;rounded=0;orthogonalLoop=1;jettySize=auto;html=1;exitX=1;exitY=0.5;exitDx=0;exitDy=0;entryX=0;entryY=0.5;entryDx=0;entryDy=0;" edge="1" parent="1" source="jcZ8EyVR28jy-M62FRA5-68" target="jcZ8EyVR28jy-M62FRA5-81">
          <mxGeometry relative="1" as="geometry" />
        </mxCell>
        <mxCell id="jcZ8EyVR28jy-M62FRA5-68" value="3" style="rounded=0;whiteSpace=wrap;html=1;fontFamily=Verdana;" vertex="1" parent="1">
          <mxGeometry x="1450" y="440" width="40" height="40" as="geometry" />
        </mxCell>
        <mxCell id="jcZ8EyVR28jy-M62FRA5-69" value="4" style="rounded=0;whiteSpace=wrap;html=1;fontFamily=Verdana;" vertex="1" parent="1">
          <mxGeometry x="1450" y="480" width="40" height="40" as="geometry" />
        </mxCell>
        <mxCell id="jcZ8EyVR28jy-M62FRA5-70" value="5" style="rounded=0;whiteSpace=wrap;html=1;fontFamily=Verdana;" vertex="1" parent="1">
          <mxGeometry x="1450" y="520" width="40" height="40" as="geometry" />
        </mxCell>
        <mxCell id="jcZ8EyVR28jy-M62FRA5-71" value="6" style="rounded=0;whiteSpace=wrap;html=1;fontFamily=Verdana;" vertex="1" parent="1">
          <mxGeometry x="1450" y="560" width="40" height="40" as="geometry" />
        </mxCell>
        <mxCell id="jcZ8EyVR28jy-M62FRA5-72" style="edgeStyle=orthogonalEdgeStyle;rounded=0;orthogonalLoop=1;jettySize=auto;html=1;exitX=1;exitY=0.5;exitDx=0;exitDy=0;entryX=0;entryY=0.5;entryDx=0;entryDy=0;" edge="1" parent="1" source="jcZ8EyVR28jy-M62FRA5-73" target="jcZ8EyVR28jy-M62FRA5-83">
          <mxGeometry relative="1" as="geometry" />
        </mxCell>
        <mxCell id="jcZ8EyVR28jy-M62FRA5-95" style="edgeStyle=orthogonalEdgeStyle;rounded=0;orthogonalLoop=1;jettySize=auto;html=1;exitX=1;exitY=0.5;exitDx=0;exitDy=0;entryX=0;entryY=0.5;entryDx=0;entryDy=0;" edge="1" parent="1" source="jcZ8EyVR28jy-M62FRA5-73" target="jcZ8EyVR28jy-M62FRA5-93">
          <mxGeometry relative="1" as="geometry" />
        </mxCell>
        <mxCell id="jcZ8EyVR28jy-M62FRA5-73" value="7" style="rounded=0;whiteSpace=wrap;html=1;fontFamily=Verdana;" vertex="1" parent="1">
          <mxGeometry x="1450" y="600" width="40" height="40" as="geometry" />
        </mxCell>
        <mxCell id="jcZ8EyVR28jy-M62FRA5-74" value="8" style="rounded=0;whiteSpace=wrap;html=1;fontFamily=Verdana;" vertex="1" parent="1">
          <mxGeometry x="1450" y="640" width="40" height="40" as="geometry" />
        </mxCell>
        <mxCell id="jcZ8EyVR28jy-M62FRA5-75" value="9" style="rounded=0;whiteSpace=wrap;html=1;fontFamily=Verdana;" vertex="1" parent="1">
          <mxGeometry x="1450" y="680" width="40" height="40" as="geometry" />
        </mxCell>
        <mxCell id="jcZ8EyVR28jy-M62FRA5-76" style="edgeStyle=orthogonalEdgeStyle;rounded=0;orthogonalLoop=1;jettySize=auto;html=1;exitX=1;exitY=0.5;exitDx=0;exitDy=0;entryX=0;entryY=0.5;entryDx=0;entryDy=0;" edge="1" parent="1" source="jcZ8EyVR28jy-M62FRA5-77" target="jcZ8EyVR28jy-M62FRA5-79">
          <mxGeometry relative="1" as="geometry" />
        </mxCell>
        <mxCell id="jcZ8EyVR28jy-M62FRA5-77" value="0" style="rounded=0;whiteSpace=wrap;html=1;fontFamily=Verdana;" vertex="1" parent="1">
          <mxGeometry x="1450" y="320" width="40" height="40" as="geometry" />
        </mxCell>
        <mxCell id="jcZ8EyVR28jy-M62FRA5-78" style="edgeStyle=orthogonalEdgeStyle;rounded=0;orthogonalLoop=1;jettySize=auto;html=1;exitX=1;exitY=0.5;exitDx=0;exitDy=0;entryX=0;entryY=0.5;entryDx=0;entryDy=0;" edge="1" parent="1" source="jcZ8EyVR28jy-M62FRA5-79" target="jcZ8EyVR28jy-M62FRA5-80">
          <mxGeometry relative="1" as="geometry" />
        </mxCell>
        <mxCell id="jcZ8EyVR28jy-M62FRA5-79" value="Entry(hash, K, V, next)" style="rounded=0;whiteSpace=wrap;html=1;fontFamily=Verdana;fontSize=10;" vertex="1" parent="1">
          <mxGeometry x="1530" y="325" width="120" height="30" as="geometry" />
        </mxCell>
        <mxCell id="jcZ8EyVR28jy-M62FRA5-80" value="Entry(hash, K, V, next)" style="rounded=0;whiteSpace=wrap;html=1;fontFamily=Verdana;fontSize=10;" vertex="1" parent="1">
          <mxGeometry x="1690" y="325" width="120" height="30" as="geometry" />
        </mxCell>
        <mxCell id="jcZ8EyVR28jy-M62FRA5-81" value="Entry(hash, K, V, next)" style="rounded=0;whiteSpace=wrap;html=1;fontFamily=Verdana;fontSize=10;" vertex="1" parent="1">
          <mxGeometry x="1530" y="445" width="120" height="30" as="geometry" />
        </mxCell>
        <mxCell id="jcZ8EyVR28jy-M62FRA5-108" style="edgeStyle=orthogonalEdgeStyle;rounded=0;orthogonalLoop=1;jettySize=auto;html=1;exitX=1;exitY=0.5;exitDx=0;exitDy=0;entryX=0;entryY=0.5;entryDx=0;entryDy=0;" edge="1" parent="1" source="jcZ8EyVR28jy-M62FRA5-83" target="jcZ8EyVR28jy-M62FRA5-96">
          <mxGeometry relative="1" as="geometry" />
        </mxCell>
        <mxCell id="jcZ8EyVR28jy-M62FRA5-83" value="TreeNode" style="rounded=0;whiteSpace=wrap;html=1;fontFamily=Verdana;fontSize=10;" vertex="1" parent="1">
          <mxGeometry x="1530" y="630" width="60" height="30" as="geometry" />
        </mxCell>
        <mxCell id="jcZ8EyVR28jy-M62FRA5-87" value="" style="shape=curlyBracket;whiteSpace=wrap;html=1;rounded=1;flipH=1;labelPosition=right;verticalLabelPosition=middle;align=left;verticalAlign=middle;rotation=-90;" vertex="1" parent="1">
          <mxGeometry x="1665" y="160" width="20" height="300" as="geometry" />
        </mxCell>
        <mxCell id="jcZ8EyVR28jy-M62FRA5-88" value="Linked List" style="text;html=1;align=center;verticalAlign=middle;whiteSpace=wrap;rounded=0;fontStyle=1;fontFamily=Verdana;textShadow=1;" vertex="1" parent="1">
          <mxGeometry x="1630" y="280" width="100" height="20" as="geometry" />
        </mxCell>
        <mxCell id="jcZ8EyVR28jy-M62FRA5-89" value="" style="shape=curlyBracket;whiteSpace=wrap;html=1;rounded=1;labelPosition=left;verticalLabelPosition=middle;align=right;verticalAlign=middle;" vertex="1" parent="1">
          <mxGeometry x="1420" y="320" width="20" height="400" as="geometry" />
        </mxCell>
        <mxCell id="jcZ8EyVR28jy-M62FRA5-90" value="Array List" style="text;html=1;align=center;verticalAlign=middle;whiteSpace=wrap;rounded=0;fontStyle=1;fontFamily=Verdana;textShadow=1;rotation=-90;" vertex="1" parent="1">
          <mxGeometry x="1360" y="510" width="100" height="20" as="geometry" />
        </mxCell>
        <mxCell id="jcZ8EyVR28jy-M62FRA5-91" value="" style="shape=curlyBracket;whiteSpace=wrap;html=1;rounded=1;flipH=1;labelPosition=right;verticalLabelPosition=middle;align=left;verticalAlign=middle;" vertex="1" parent="1">
          <mxGeometry x="1500" y="680" width="20" height="40" as="geometry" />
        </mxCell>
        <mxCell id="jcZ8EyVR28jy-M62FRA5-92" value="Bucket" style="text;html=1;align=center;verticalAlign=middle;whiteSpace=wrap;rounded=0;fontStyle=1;fontFamily=Verdana;textShadow=1;rotation=-90;" vertex="1" parent="1">
          <mxGeometry x="1500" y="690" width="60" height="20" as="geometry" />
        </mxCell>
        <mxCell id="jcZ8EyVR28jy-M62FRA5-104" style="edgeStyle=orthogonalEdgeStyle;rounded=0;orthogonalLoop=1;jettySize=auto;html=1;exitX=1;exitY=0.5;exitDx=0;exitDy=0;entryX=0;entryY=0.5;entryDx=0;entryDy=0;" edge="1" parent="1" source="jcZ8EyVR28jy-M62FRA5-93" target="jcZ8EyVR28jy-M62FRA5-99">
          <mxGeometry relative="1" as="geometry">
            <Array as="points">
              <mxPoint x="1600" y="585" />
              <mxPoint x="1600" y="550" />
            </Array>
          </mxGeometry>
        </mxCell>
        <mxCell id="jcZ8EyVR28jy-M62FRA5-105" style="edgeStyle=orthogonalEdgeStyle;rounded=0;orthogonalLoop=1;jettySize=auto;html=1;exitX=1;exitY=0.5;exitDx=0;exitDy=0;entryX=0;entryY=0.75;entryDx=0;entryDy=0;" edge="1" parent="1" source="jcZ8EyVR28jy-M62FRA5-93" target="jcZ8EyVR28jy-M62FRA5-100">
          <mxGeometry relative="1" as="geometry">
            <Array as="points">
              <mxPoint x="1600" y="585" />
              <mxPoint x="1600" y="613" />
            </Array>
          </mxGeometry>
        </mxCell>
        <mxCell id="jcZ8EyVR28jy-M62FRA5-93" value="TreeNode" style="rounded=0;whiteSpace=wrap;html=1;fontFamily=Verdana;fontSize=10;" vertex="1" parent="1">
          <mxGeometry x="1530" y="570" width="60" height="30" as="geometry" />
        </mxCell>
        <mxCell id="jcZ8EyVR28jy-M62FRA5-109" style="edgeStyle=orthogonalEdgeStyle;rounded=0;orthogonalLoop=1;jettySize=auto;html=1;exitX=1;exitY=0.5;exitDx=0;exitDy=0;entryX=0;entryY=0.5;entryDx=0;entryDy=0;" edge="1" parent="1" source="jcZ8EyVR28jy-M62FRA5-96" target="jcZ8EyVR28jy-M62FRA5-97">
          <mxGeometry relative="1" as="geometry" />
        </mxCell>
        <mxCell id="jcZ8EyVR28jy-M62FRA5-96" value="TreeNode" style="rounded=0;whiteSpace=wrap;html=1;fontFamily=Verdana;fontSize=10;" vertex="1" parent="1">
          <mxGeometry x="1610" y="630" width="60" height="30" as="geometry" />
        </mxCell>
        <mxCell id="jcZ8EyVR28jy-M62FRA5-110" style="edgeStyle=orthogonalEdgeStyle;rounded=0;orthogonalLoop=1;jettySize=auto;html=1;exitX=1;exitY=0.5;exitDx=0;exitDy=0;entryX=0;entryY=0.5;entryDx=0;entryDy=0;" edge="1" parent="1" source="jcZ8EyVR28jy-M62FRA5-97" target="jcZ8EyVR28jy-M62FRA5-98">
          <mxGeometry relative="1" as="geometry" />
        </mxCell>
        <mxCell id="jcZ8EyVR28jy-M62FRA5-97" value="TreeNode" style="rounded=0;whiteSpace=wrap;html=1;fontFamily=Verdana;fontSize=10;" vertex="1" parent="1">
          <mxGeometry x="1700" y="630" width="60" height="30" as="geometry" />
        </mxCell>
        <mxCell id="jcZ8EyVR28jy-M62FRA5-98" value="TreeNode" style="rounded=0;whiteSpace=wrap;html=1;fontFamily=Verdana;fontSize=10;" vertex="1" parent="1">
          <mxGeometry x="1790" y="630" width="60" height="30" as="geometry" />
        </mxCell>
        <mxCell id="jcZ8EyVR28jy-M62FRA5-106" style="edgeStyle=orthogonalEdgeStyle;rounded=0;orthogonalLoop=1;jettySize=auto;html=1;exitX=1;exitY=0.5;exitDx=0;exitDy=0;entryX=0;entryY=0.5;entryDx=0;entryDy=0;" edge="1" parent="1" source="jcZ8EyVR28jy-M62FRA5-99" target="jcZ8EyVR28jy-M62FRA5-102">
          <mxGeometry relative="1" as="geometry" />
        </mxCell>
        <mxCell id="jcZ8EyVR28jy-M62FRA5-99" value="TreeNode" style="rounded=0;whiteSpace=wrap;html=1;fontFamily=Verdana;fontSize=10;" vertex="1" parent="1">
          <mxGeometry x="1610" y="535" width="60" height="30" as="geometry" />
        </mxCell>
        <mxCell id="jcZ8EyVR28jy-M62FRA5-107" style="edgeStyle=orthogonalEdgeStyle;rounded=0;orthogonalLoop=1;jettySize=auto;html=1;exitX=1;exitY=0.5;exitDx=0;exitDy=0;entryX=0;entryY=0.5;entryDx=0;entryDy=0;" edge="1" parent="1" source="jcZ8EyVR28jy-M62FRA5-100" target="jcZ8EyVR28jy-M62FRA5-101">
          <mxGeometry relative="1" as="geometry" />
        </mxCell>
        <mxCell id="jcZ8EyVR28jy-M62FRA5-100" value="TreeNode" style="rounded=0;whiteSpace=wrap;html=1;fontFamily=Verdana;fontSize=10;" vertex="1" parent="1">
          <mxGeometry x="1610" y="590" width="60" height="30" as="geometry" />
        </mxCell>
        <mxCell id="jcZ8EyVR28jy-M62FRA5-101" value="TreeNode" style="rounded=0;whiteSpace=wrap;html=1;fontFamily=Verdana;fontSize=10;" vertex="1" parent="1">
          <mxGeometry x="1700" y="590" width="60" height="30" as="geometry" />
        </mxCell>
        <mxCell id="jcZ8EyVR28jy-M62FRA5-102" value="TreeNode" style="rounded=0;whiteSpace=wrap;html=1;fontFamily=Verdana;fontSize=10;" vertex="1" parent="1">
          <mxGeometry x="1700" y="535" width="60" height="30" as="geometry" />
        </mxCell>
        <mxCell id="jcZ8EyVR28jy-M62FRA5-111" value="&lt;font color=&quot;#cc6600&quot; face=&quot;Verdana&quot;&gt;&lt;b&gt;(1)&lt;/b&gt;&lt;/font&gt;" style="text;html=1;align=center;verticalAlign=middle;whiteSpace=wrap;rounded=0;" vertex="1" parent="1">
          <mxGeometry x="1100" y="190" width="60" height="30" as="geometry" />
        </mxCell>
        <mxCell id="jcZ8EyVR28jy-M62FRA5-112" value="" style="shape=curlyBracket;whiteSpace=wrap;html=1;rounded=1;flipH=1;labelPosition=right;verticalLabelPosition=middle;align=left;verticalAlign=middle;" vertex="1" parent="1">
          <mxGeometry x="1870" y="535" width="20" height="125" as="geometry" />
        </mxCell>
        <mxCell id="jcZ8EyVR28jy-M62FRA5-113" value="Red Black Tree" style="text;html=1;align=center;verticalAlign=middle;whiteSpace=wrap;rounded=0;fontStyle=1;fontFamily=Verdana;textShadow=1;rotation=-90;" vertex="1" parent="1">
          <mxGeometry x="1860" y="585" width="110" height="20" as="geometry" />
        </mxCell>
        <mxCell id="jcZ8EyVR28jy-M62FRA5-114" value="" style="curved=1;endArrow=classic;html=1;rounded=0;exitX=1;exitY=0.5;exitDx=0;exitDy=0;entryX=0.5;entryY=1;entryDx=0;entryDy=0;dashed=1;fillColor=#ffe6cc;strokeColor=#D79B00;strokeWidth=2;" edge="1" parent="1" source="jcZ8EyVR28jy-M62FRA5-63" target="jcZ8EyVR28jy-M62FRA5-113">
          <mxGeometry width="50" height="50" relative="1" as="geometry">
            <mxPoint x="1650" y="340" as="sourcePoint" />
            <mxPoint x="1700" y="290" as="targetPoint" />
            <Array as="points">
              <mxPoint x="1780" y="260" />
              <mxPoint x="1830" y="270" />
              <mxPoint x="2010" y="280" />
              <mxPoint x="1980" y="380" />
              <mxPoint x="2070" y="460" />
              <mxPoint x="2050" y="540" />
              <mxPoint x="1980" y="600" />
            </Array>
          </mxGeometry>
        </mxCell>
        <mxCell id="jcZ8EyVR28jy-M62FRA5-117" value="&lt;span style=&quot;font-family: Verdana; text-wrap: wrap;&quot;&gt;No&lt;/span&gt;" style="text;html=1;align=center;verticalAlign=middle;resizable=0;points=[];autosize=1;strokeColor=none;fillColor=none;fontStyle=1;fontColor=#FF0000;" vertex="1" parent="1">
          <mxGeometry x="1140" y="250" width="40" height="30" as="geometry" />
        </mxCell>
        <mxCell id="jcZ8EyVR28jy-M62FRA5-123" style="edgeStyle=orthogonalEdgeStyle;rounded=0;orthogonalLoop=1;jettySize=auto;html=1;exitX=0.5;exitY=1;exitDx=0;exitDy=0;entryX=0.5;entryY=0;entryDx=0;entryDy=0;curved=1;dashed=1;strokeWidth=2;fillColor=#ffe6cc;strokeColor=#d79b00;" edge="1" parent="1" source="jcZ8EyVR28jy-M62FRA5-121" target="jcZ8EyVR28jy-M62FRA5-22">
          <mxGeometry relative="1" as="geometry" />
        </mxCell>
        <mxCell id="jcZ8EyVR28jy-M62FRA5-121" value="Place it at the end of the linked list addEntry(hash, key, value, i)" style="rounded=1;whiteSpace=wrap;html=1;fontFamily=Verdana;fillColor=#f5f5f5;fontColor=#333333;strokeColor=#666666;" vertex="1" parent="1">
          <mxGeometry x="1025" y="290" width="210" height="40" as="geometry" />
        </mxCell>
        <mxCell id="jcZ8EyVR28jy-M62FRA5-126" value="&lt;h1 style=&quot;margin-top: 0px;&quot;&gt;&lt;span style=&quot;font-size: 14px; font-weight: 400;&quot;&gt;&lt;font color=&quot;#cc6600&quot;&gt;(1) &lt;/font&gt;Java 8 onwards&lt;/span&gt;&lt;br&gt;Note&lt;/h1&gt;&lt;div&gt;When nodes in a bucket reduce less than UNTREEIFY_THRESS_HOLD (default 6) the Tree again concert to LinkedList -&amp;gt; Reason: Save memory usage&lt;/div&gt;" style="text;html=1;whiteSpace=wrap;overflow=hidden;rounded=0;fillColor=#fff2cc;strokeColor=#d6b656;" vertex="1" parent="1">
          <mxGeometry x="40" y="280" width="460" height="120" as="geometry" />
        </mxCell>
        <mxCell id="jcZ8EyVR28jy-M62FRA5-127" value="Flowchart for put method" style="text;html=1;align=center;verticalAlign=middle;whiteSpace=wrap;rounded=0;fontSize=14;fontStyle=1;fontFamily=Verdana;textShadow=1;" vertex="1" parent="1">
          <mxGeometry x="40" width="230" height="30" as="geometry" />
        </mxCell>
        <mxCell id="jcZ8EyVR28jy-M62FRA5-130" style="edgeStyle=orthogonalEdgeStyle;rounded=0;orthogonalLoop=1;jettySize=auto;html=1;exitX=1;exitY=0.5;exitDx=0;exitDy=0;entryX=0;entryY=0.5;entryDx=0;entryDy=0;" edge="1" parent="1" source="jcZ8EyVR28jy-M62FRA5-128" target="jcZ8EyVR28jy-M62FRA5-129">
          <mxGeometry relative="1" as="geometry" />
        </mxCell>
        <mxCell id="jcZ8EyVR28jy-M62FRA5-128" value="Start" style="ellipse;whiteSpace=wrap;html=1;aspect=fixed;fontFamily=Verdana;fillColor=#d5e8d4;strokeColor=#82b366;" vertex="1" parent="1">
          <mxGeometry x="80" y="885" width="40" height="40" as="geometry" />
        </mxCell>
        <mxCell id="jcZ8EyVR28jy-M62FRA5-132" style="edgeStyle=orthogonalEdgeStyle;rounded=0;orthogonalLoop=1;jettySize=auto;html=1;exitX=1;exitY=0.5;exitDx=0;exitDy=0;entryX=0;entryY=0.5;entryDx=0;entryDy=0;" edge="1" parent="1" source="jcZ8EyVR28jy-M62FRA5-129" target="jcZ8EyVR28jy-M62FRA5-131">
          <mxGeometry relative="1" as="geometry" />
        </mxCell>
        <mxCell id="jcZ8EyVR28jy-M62FRA5-129" value="Call get(key)" style="rounded=1;whiteSpace=wrap;html=1;fontFamily=Verdana;fillColor=#dae8fc;strokeColor=#6c8ebf;" vertex="1" parent="1">
          <mxGeometry x="200" y="885" width="120" height="40" as="geometry" />
        </mxCell>
        <mxCell id="jcZ8EyVR28jy-M62FRA5-134" style="edgeStyle=orthogonalEdgeStyle;rounded=0;orthogonalLoop=1;jettySize=auto;html=1;exitX=0.5;exitY=0;exitDx=0;exitDy=0;fontColor=#00CC66;strokeColor=#00CC66;" edge="1" parent="1" source="jcZ8EyVR28jy-M62FRA5-131" target="jcZ8EyVR28jy-M62FRA5-133">
          <mxGeometry relative="1" as="geometry" />
        </mxCell>
        <mxCell id="jcZ8EyVR28jy-M62FRA5-137" style="edgeStyle=orthogonalEdgeStyle;rounded=0;orthogonalLoop=1;jettySize=auto;html=1;exitX=1;exitY=0.5;exitDx=0;exitDy=0;entryX=0;entryY=0.5;entryDx=0;entryDy=0;strokeColor=#FF0000;" edge="1" parent="1" source="jcZ8EyVR28jy-M62FRA5-131" target="jcZ8EyVR28jy-M62FRA5-139">
          <mxGeometry relative="1" as="geometry">
            <mxPoint x="550" y="905" as="targetPoint" />
          </mxGeometry>
        </mxCell>
        <mxCell id="jcZ8EyVR28jy-M62FRA5-131" value="is key null?" style="rhombus;whiteSpace=wrap;html=1;fillColor=#fff2cc;strokeColor=#d6b656;" vertex="1" parent="1">
          <mxGeometry x="400" y="870" width="80" height="70" as="geometry" />
        </mxCell>
        <mxCell id="jcZ8EyVR28jy-M62FRA5-145" style="edgeStyle=orthogonalEdgeStyle;rounded=0;orthogonalLoop=1;jettySize=auto;html=1;exitX=1;exitY=0.5;exitDx=0;exitDy=0;entryX=0;entryY=0.5;entryDx=0;entryDy=0;" edge="1" parent="1" source="jcZ8EyVR28jy-M62FRA5-133" target="jcZ8EyVR28jy-M62FRA5-143">
          <mxGeometry relative="1" as="geometry">
            <Array as="points">
              <mxPoint x="1010" y="780" />
              <mxPoint x="1010" y="905" />
            </Array>
          </mxGeometry>
        </mxCell>
        <mxCell id="jcZ8EyVR28jy-M62FRA5-133" value="call getForNullKey()" style="rounded=1;whiteSpace=wrap;html=1;fontFamily=Verdana;fillColor=#f5f5f5;fontColor=#333333;strokeColor=#666666;" vertex="1" parent="1">
          <mxGeometry x="360" y="760" width="160" height="40" as="geometry" />
        </mxCell>
        <mxCell id="jcZ8EyVR28jy-M62FRA5-135" value="&lt;font face=&quot;Verdana&quot;&gt;&lt;span style=&quot;text-wrap: wrap;&quot;&gt;Yes&lt;/span&gt;&lt;/font&gt;" style="text;html=1;align=center;verticalAlign=middle;resizable=0;points=[];autosize=1;strokeColor=none;fillColor=none;fontStyle=1;fontColor=#00CC66;" vertex="1" parent="1">
          <mxGeometry x="450" y="830" width="40" height="30" as="geometry" />
        </mxCell>
        <mxCell id="jcZ8EyVR28jy-M62FRA5-142" style="edgeStyle=orthogonalEdgeStyle;rounded=0;orthogonalLoop=1;jettySize=auto;html=1;exitX=1;exitY=0.5;exitDx=0;exitDy=0;entryX=0;entryY=0.5;entryDx=0;entryDy=0;" edge="1" parent="1" source="jcZ8EyVR28jy-M62FRA5-138" target="jcZ8EyVR28jy-M62FRA5-143">
          <mxGeometry relative="1" as="geometry">
            <mxPoint x="1060" y="904.75" as="targetPoint" />
          </mxGeometry>
        </mxCell>
        <mxCell id="jcZ8EyVR28jy-M62FRA5-138" value="Calculate index based on indexFor(h, length)" style="rounded=1;whiteSpace=wrap;html=1;fontFamily=Verdana;fillColor=#f5f5f5;fontColor=#333333;strokeColor=#666666;" vertex="1" parent="1">
          <mxGeometry x="760" y="885" width="200" height="40" as="geometry" />
        </mxCell>
        <mxCell id="jcZ8EyVR28jy-M62FRA5-141" style="edgeStyle=orthogonalEdgeStyle;rounded=0;orthogonalLoop=1;jettySize=auto;html=1;exitX=1;exitY=0.5;exitDx=0;exitDy=0;entryX=0;entryY=0.5;entryDx=0;entryDy=0;" edge="1" parent="1" source="jcZ8EyVR28jy-M62FRA5-139" target="jcZ8EyVR28jy-M62FRA5-138">
          <mxGeometry relative="1" as="geometry" />
        </mxCell>
        <mxCell id="jcZ8EyVR28jy-M62FRA5-139" value="Calculate hashcode of key hash(k)" style="rounded=1;whiteSpace=wrap;html=1;fontFamily=Verdana;fillColor=#f5f5f5;strokeColor=#666666;fontColor=#333333;" vertex="1" parent="1">
          <mxGeometry x="570" y="885" width="120" height="40" as="geometry" />
        </mxCell>
        <mxCell id="jcZ8EyVR28jy-M62FRA5-140" value="&lt;span style=&quot;font-family: Verdana; text-wrap: wrap;&quot;&gt;No&lt;/span&gt;" style="text;html=1;align=center;verticalAlign=middle;resizable=0;points=[];autosize=1;strokeColor=none;fillColor=none;fontStyle=1;fontColor=#FF0000;" vertex="1" parent="1">
          <mxGeometry x="500" y="880" width="40" height="30" as="geometry" />
        </mxCell>
        <mxCell id="jcZ8EyVR28jy-M62FRA5-146" style="edgeStyle=orthogonalEdgeStyle;rounded=0;orthogonalLoop=1;jettySize=auto;html=1;exitX=0.5;exitY=0;exitDx=0;exitDy=0;curved=1;dashed=1;strokeWidth=2;fillColor=#ffe6cc;strokeColor=#d79b00;" edge="1" parent="1" source="jcZ8EyVR28jy-M62FRA5-143">
          <mxGeometry relative="1" as="geometry">
            <mxPoint x="670" y="650" as="targetPoint" />
            <Array as="points">
              <mxPoint x="1160" y="740" />
              <mxPoint x="671" y="740" />
              <mxPoint x="671" y="650" />
            </Array>
          </mxGeometry>
        </mxCell>
        <mxCell id="jcZ8EyVR28jy-M62FRA5-149" style="edgeStyle=orthogonalEdgeStyle;rounded=0;orthogonalLoop=1;jettySize=auto;html=1;exitX=0.75;exitY=0;exitDx=0;exitDy=0;curved=1;fillColor=#ffe6cc;strokeColor=#d79b00;dashed=1;strokeWidth=2;" edge="1" parent="1" source="jcZ8EyVR28jy-M62FRA5-143">
          <mxGeometry relative="1" as="geometry">
            <mxPoint x="670" y="370" as="targetPoint" />
            <Array as="points">
              <mxPoint x="1210" y="420" />
              <mxPoint x="671" y="420" />
              <mxPoint x="671" y="370" />
            </Array>
          </mxGeometry>
        </mxCell>
        <mxCell id="jcZ8EyVR28jy-M62FRA5-143" value="interate through linked list/ tree check key using equals()" style="rounded=1;whiteSpace=wrap;html=1;fontFamily=Verdana;fillColor=#f5f5f5;fontColor=#333333;strokeColor=#666666;" vertex="1" parent="1">
          <mxGeometry x="1060" y="885" width="200" height="40" as="geometry" />
        </mxCell>
        <mxCell id="jcZ8EyVR28jy-M62FRA5-147" value="" style="endArrow=classic;html=1;rounded=0;fillColor=#d5e8d4;strokeColor=#82b366;strokeWidth=2;" edge="1" parent="1">
          <mxGeometry width="50" height="50" relative="1" as="geometry">
            <mxPoint x="640" y="650" as="sourcePoint" />
            <mxPoint x="1080" y="650" as="targetPoint" />
          </mxGeometry>
        </mxCell>
        <mxCell id="jcZ8EyVR28jy-M62FRA5-148" value="" style="endArrow=classic;html=1;rounded=0;fillColor=#d5e8d4;strokeColor=#82b366;strokeWidth=2;" edge="1" parent="1">
          <mxGeometry width="50" height="50" relative="1" as="geometry">
            <mxPoint x="650" y="370" as="sourcePoint" />
            <mxPoint x="930" y="370" as="targetPoint" />
          </mxGeometry>
        </mxCell>
        <mxCell id="jcZ8EyVR28jy-M62FRA5-150" value="Flowchart for get method" style="text;html=1;align=center;verticalAlign=middle;whiteSpace=wrap;rounded=0;fontSize=14;fontStyle=1;fontFamily=Verdana;textShadow=1;" vertex="1" parent="1">
          <mxGeometry x="80" y="840" width="230" height="30" as="geometry" />
        </mxCell>
      </root>
    </mxGraphModel>
  </diagram>
</mxfile>
